<svg width="120" height="23" viewBox="0 0 120 23" fill="none" xmlns="http://www.w3.org/2000/svg">
<path d="M8.81879 6.73581L8.17385 3.08725C8.11777 2.7411 7.93551 2.40899 7.62706 2.09091C7.42143 1.88509 7.31861 1.68863 7.31861 1.50153V0.519219C7.31861 0.23856 7.45414 0.0982306 7.7252 0.0982306H13.4735C13.6605 0.0982306 13.7773 0.145007 13.824 0.23856C13.8801 0.332113 13.9082 0.542607 13.9082 0.870043C13.9082 1.36587 13.8801 1.66524 13.824 1.76815C13.7773 1.8617 13.6605 1.95994 13.4735 2.06284C13.1931 2.21253 13.0529 2.36221 13.0529 2.5119C13.0529 2.70836 13.0903 2.99837 13.1651 3.38194L14.7634 12.363L16.4318 3.08725C16.4412 2.9937 16.4458 2.89546 16.4458 2.79256C16.4458 2.36221 16.2075 2.03478 15.7308 1.81025C15.4878 1.69799 15.3616 1.37991 15.3523 0.85601C15.3523 0.71568 15.3476 0.61745 15.3382 0.561318V0.435021C15.3382 0.210494 15.5065 0.0982306 15.843 0.0982306H19.0676C19.292 0.0982306 19.4368 0.140329 19.5023 0.224527C19.5677 0.29937 19.6004 0.467765 19.6004 0.729713C19.6004 0.813911 19.5957 0.898109 19.5864 0.982306L19.5443 1.52959C19.507 1.74476 19.3574 1.93655 19.0957 2.10494C18.834 2.27334 18.6657 2.55867 18.591 2.96095L15.2121 21.4844C15.0812 22.2142 14.9737 22.6492 14.8896 22.7895C14.8055 22.9298 14.6512 23 14.4269 23H12.0715C11.8191 23 11.6602 22.7334 11.5948 22.2001C11.5855 22.0972 11.5761 22.0177 11.5668 21.9616L9.78619 12.0683L8.01963 22.13C7.9542 22.5322 7.8841 22.7755 7.80932 22.8597C7.73455 22.9532 7.61304 23 7.44479 23H4.99124C4.71083 23 4.50987 22.5088 4.38836 21.5265C4.36967 21.3488 4.35098 21.2131 4.33228 21.1196L0.981423 2.96095C0.906648 2.57738 0.710363 2.29673 0.392569 2.11898C0.130856 1.97865 0 1.77283 0 1.50153V0.420988C0 0.205817 0.130856 0.0982306 0.392569 0.0982306H5.94462C6.13156 0.0982306 6.26241 0.149685 6.33719 0.252593C6.41196 0.346146 6.44935 0.570673 6.44935 0.926175C6.44935 1.32845 6.43533 1.58105 6.40729 1.68395C6.37925 1.78686 6.29045 1.9038 6.1409 2.03478C5.95397 2.21253 5.8605 2.39496 5.8605 2.58206C5.8605 2.79723 5.88854 3.06386 5.94462 3.38194L7.7252 12.8822L8.81879 6.73581Z" fill="#00B700"/>
<path d="M25.2506 17.906H21.7455L21.5913 19.1971C21.5913 19.2251 21.582 19.2672 21.5633 19.3234C21.4885 19.5947 21.4511 19.8379 21.4511 20.0531C21.4511 20.3899 21.6708 20.6752 22.1101 20.9091C22.3437 21.0307 22.4886 21.157 22.5447 21.288C22.6008 21.419 22.6288 21.6341 22.6288 21.9335C22.6288 22.3171 22.6054 22.5509 22.5587 22.6351C22.5213 22.71 22.4232 22.7474 22.2643 22.7474H18.5629C18.3573 22.7474 18.2545 22.5322 18.2545 22.1019C18.2545 21.5874 18.418 21.171 18.7452 20.853C19.0536 20.5629 19.2312 20.2542 19.278 19.9268L21.8717 3.41001C21.9184 3.15741 21.9418 2.93756 21.9418 2.75046C21.9418 2.46044 21.7409 2.20317 21.3389 1.97865C21.152 1.86638 21.0585 1.61847 21.0585 1.2349C21.0585 0.720358 21.0866 0.402278 21.1427 0.280659C21.1987 0.15904 21.3483 0.0982306 21.5913 0.0982306H26.9471C27.2742 0.0982306 27.5032 0.252593 27.6341 0.561318C27.7649 0.870043 27.8958 1.54362 28.0266 2.58206C28.0827 2.98434 28.1388 3.38194 28.1949 3.77486L30.4942 19.1971C30.6064 19.9455 30.8821 20.5162 31.3214 20.9091C31.4429 21.012 31.5224 21.0962 31.5598 21.1617C31.5971 21.2178 31.6158 21.4002 31.6158 21.709C31.6158 22.1861 31.5831 22.4808 31.5177 22.593C31.4523 22.696 31.3121 22.7474 31.0971 22.7474H24.858C24.6711 22.7474 24.5776 22.5697 24.5776 22.2142C24.5776 21.7651 24.601 21.4844 24.6477 21.3722C24.6945 21.2599 24.83 21.1289 25.0543 20.9793C25.3815 20.7734 25.545 20.5115 25.545 20.1934C25.545 19.866 25.4469 19.1035 25.2506 17.906ZM23.5682 5.38865L22.0119 16.2923H25.0964L23.5682 5.38865Z" fill="#00B700"/>
<path d="M38.7943 12.784V19.7444C38.7943 20.0718 38.8129 20.2916 38.8503 20.4039C38.8971 20.5162 39.0186 20.6331 39.2149 20.7547C39.4672 20.9138 39.5934 21.1804 39.5934 21.5546C39.5934 22.0972 39.542 22.434 39.4392 22.565C39.3457 22.6866 39.1681 22.7474 38.9064 22.7474H32.9758C32.6393 22.7474 32.4711 22.5042 32.4711 22.0177C32.4711 21.5499 32.4851 21.2506 32.5131 21.1196C32.5412 20.9793 32.6347 20.881 32.7935 20.8249C33.3076 20.6191 33.5647 20.2168 33.5647 19.6181V3.18548C33.5647 2.57738 33.3403 2.20785 32.8917 2.07688C32.6674 2.00203 32.5272 1.92719 32.4711 1.85235C32.415 1.77751 32.387 1.55766 32.387 1.1928C32.387 0.463087 32.5832 0.0982306 32.9758 0.0982306H40.7291C42.2713 0.0982306 43.6453 0.678259 44.851 1.83832C46.0661 2.99837 46.6737 4.55603 46.6737 6.51129C46.6737 9.28981 45.2576 11.1047 42.4255 11.9561C45.0146 12.5267 46.3091 14.1686 46.3091 16.8816V20.2215C46.3091 20.5021 46.4166 20.7126 46.6316 20.853C46.884 21.0214 47.0102 21.2786 47.0102 21.6248C47.0102 22.1674 46.9775 22.4901 46.912 22.593C46.8466 22.696 46.6737 22.7474 46.3933 22.7474H42.6358C42.1872 22.7474 41.818 22.4948 41.5282 21.9896C41.2385 21.4751 41.0936 20.8436 41.0936 20.0952V14.4399C41.0936 13.336 40.5374 12.784 39.4252 12.784H38.7943ZM38.7943 1.69799V11.1562H39.7056C40.6309 11.1562 41.0936 10.2253 41.0936 8.36364V3.84503C41.0936 3.05918 40.944 2.50722 40.6449 2.18914C40.3552 1.8617 39.8972 1.69799 39.2709 1.69799H38.7943Z" fill="#00B700"/>
<path d="M57.8339 9.8371C59.5443 10.4358 60.722 11.1796 61.367 12.0683C62.0119 12.9477 62.3344 14.1639 62.3344 15.7169C62.3344 18.0838 61.7409 19.8473 60.5538 21.0073C59.3667 22.1674 57.5301 22.7474 55.0438 22.7474H48.1879C47.9075 22.7474 47.7673 22.6024 47.7673 22.3124V21.4704C47.7673 21.2365 47.8934 21.0635 48.1458 20.9512C48.6786 20.6986 48.945 20.3291 48.945 19.8426V2.90482C48.945 2.67094 48.9076 2.5119 48.8328 2.4277C48.758 2.3435 48.5337 2.21253 48.1598 2.03478C47.9729 1.95058 47.8607 1.85703 47.8233 1.75412C47.7953 1.65121 47.7813 1.39862 47.7813 0.996339C47.7813 0.640838 47.828 0.402278 47.9215 0.280659C48.0243 0.15904 48.1972 0.0982306 48.4402 0.0982306H56.1234C57.9741 0.0982306 59.3948 0.570673 60.3856 1.51556C61.3763 2.46044 61.8717 3.6626 61.8717 5.12203C61.8717 6.33821 61.4791 7.35794 60.694 8.18121C59.9182 9.00447 58.9648 9.55644 57.8339 9.8371ZM54.1605 1.68395V9.05125H54.9036C55.371 9.05125 55.7355 8.9156 55.9972 8.6443C56.2683 8.37299 56.4225 7.92394 56.4599 7.29713C56.5066 6.66097 56.53 5.86109 56.53 4.8975C56.53 3.55034 56.3991 2.68029 56.1374 2.28737C55.885 1.88509 55.4738 1.68395 54.9036 1.68395H54.1605ZM54.1605 10.651V21.1336C55.0204 21.1336 55.5953 21.0167 55.885 20.7828C56.1841 20.5489 56.357 20.0858 56.4038 19.3935C56.4599 18.7012 56.4879 17.5318 56.4879 15.8853C56.4879 15.5485 56.4739 14.786 56.4458 13.5979C56.4178 12.4004 56.3617 11.6801 56.2776 11.4369C56.1935 11.1936 56.0439 11.0018 55.8289 10.8615C55.6233 10.7212 55.3149 10.651 54.9036 10.651H54.1605Z" fill="#F37B00"/>
<path d="M70.1437 17.906H66.6386L66.4844 19.1971C66.4844 19.2251 66.4751 19.2672 66.4564 19.3234C66.3816 19.5947 66.3442 19.8379 66.3442 20.0531C66.3442 20.3899 66.5639 20.6752 67.0032 20.9091C67.2368 21.0307 67.3817 21.157 67.4378 21.288C67.4939 21.419 67.5219 21.6341 67.5219 21.9335C67.5219 22.3171 67.4985 22.5509 67.4518 22.6351C67.4144 22.71 67.3163 22.7474 67.1574 22.7474H63.456C63.2504 22.7474 63.1476 22.5322 63.1476 22.1019C63.1476 21.5874 63.3111 21.171 63.6383 20.853C63.9467 20.5629 64.1243 20.2542 64.1711 19.9268L66.7648 3.41001C66.8115 3.15741 66.8349 2.93756 66.8349 2.75046C66.8349 2.46044 66.634 2.20317 66.232 1.97865C66.0451 1.86638 65.9516 1.61847 65.9516 1.2349C65.9516 0.720358 65.9797 0.402278 66.0358 0.280659C66.0918 0.15904 66.2414 0.0982306 66.4844 0.0982306H71.8402C72.1673 0.0982306 72.3963 0.252593 72.5272 0.561318C72.658 0.870043 72.7889 1.54362 72.9197 2.58206C72.9758 2.98434 73.0319 3.38194 73.088 3.77486L75.3873 19.1971C75.4995 19.9455 75.7752 20.5162 76.2145 20.9091C76.336 21.012 76.4155 21.0962 76.4529 21.1617C76.4902 21.2178 76.5089 21.4002 76.5089 21.709C76.5089 22.1861 76.4762 22.4808 76.4108 22.593C76.3454 22.696 76.2052 22.7474 75.9902 22.7474H69.7511C69.5642 22.7474 69.4707 22.5697 69.4707 22.2142C69.4707 21.7651 69.4941 21.4844 69.5408 21.3722C69.5876 21.2599 69.7231 21.1289 69.9474 20.9793C70.2746 20.7734 70.4381 20.5115 70.4381 20.1934C70.4381 19.866 70.34 19.1035 70.1437 17.906ZM68.4613 5.38865L66.905 16.2923H69.9895L68.4613 5.38865Z" fill="#F37B00"/>
<path d="M83.6873 12.784V19.7444C83.6873 20.0718 83.706 20.2916 83.7434 20.4039C83.7902 20.5162 83.9117 20.6331 84.108 20.7547C84.3603 20.9138 84.4865 21.1804 84.4865 21.5546C84.4865 22.0972 84.4351 22.434 84.3323 22.565C84.2388 22.6866 84.0612 22.7474 83.7995 22.7474H77.8689C77.5324 22.7474 77.3642 22.5042 77.3642 22.0177C77.3642 21.5499 77.3782 21.2506 77.4062 21.1196C77.4343 20.9793 77.5277 20.881 77.6866 20.8249C78.2007 20.6191 78.4578 20.2168 78.4578 19.6181V3.18548C78.4578 2.57738 78.2334 2.20785 77.7848 2.07688C77.5605 2.00203 77.4203 1.92719 77.3642 1.85235C77.3081 1.77751 77.2801 1.55766 77.2801 1.1928C77.2801 0.463087 77.4763 0.0982306 77.8689 0.0982306H85.6221C87.1644 0.0982306 88.5384 0.678259 89.7441 1.83832C90.9592 2.99837 91.5668 4.55603 91.5668 6.51129C91.5668 9.28981 90.1507 11.1047 87.3186 11.9561C89.9077 12.5267 91.2022 14.1686 91.2022 16.8816V20.2215C91.2022 20.5021 91.3097 20.7126 91.5247 20.853C91.7771 21.0214 91.9033 21.2786 91.9033 21.6248C91.9033 22.1674 91.8705 22.4901 91.8051 22.593C91.7397 22.696 91.5668 22.7474 91.2864 22.7474H87.5289C87.0803 22.7474 86.7111 22.4948 86.4213 21.9896C86.1316 21.4751 85.9867 20.8436 85.9867 20.0952V14.4399C85.9867 13.336 85.4305 12.784 84.3183 12.784H83.6873ZM83.6873 1.69799V11.1562H84.5987C85.524 11.1562 85.9867 10.2253 85.9867 8.36364V3.84503C85.9867 3.05918 85.8371 2.50722 85.538 2.18914C85.2483 1.8617 84.7903 1.69799 84.164 1.69799H83.6873Z" fill="#F37B00"/>
<path d="M95.7588 18.5375H102.783C103.101 18.5375 103.349 18.4206 103.526 18.1867C103.713 17.9435 103.872 17.4944 104.003 16.8395C104.059 16.5682 104.148 16.3905 104.269 16.3063C104.391 16.2127 104.648 16.166 105.04 16.166C105.62 16.166 105.91 16.2922 105.91 16.5448C105.91 16.629 105.896 16.7273 105.868 16.8395C105.821 17.0921 105.723 17.6955 105.573 18.6498C105.405 19.6882 105.237 20.5957 105.068 21.3722C104.909 22.1393 104.788 22.5603 104.704 22.6351C104.629 22.71 104.414 22.7474 104.059 22.7474H92.9968V19.4637C92.9968 19.0053 93.3894 18.4253 94.1745 17.7236C94.5671 17.3681 95.4738 16.2969 96.8945 14.5101C98.3246 12.7232 99.2499 11.2638 99.6705 10.1318C100.091 8.9998 100.301 7.48892 100.301 5.59915C100.301 4.0181 100.147 3.00305 99.8388 2.554C99.5397 2.09559 99.105 1.86638 98.5349 1.86638C98.1049 1.86638 97.7684 1.988 97.5254 2.23124C97.2824 2.47448 97.1609 2.79256 97.1609 3.18548C97.1609 3.41001 97.1842 3.68131 97.231 3.99939C97.2871 4.42038 97.3151 4.82733 97.3151 5.22026C97.3151 6.07159 97.1188 6.73114 96.7262 7.1989C96.343 7.66667 95.8523 7.90055 95.2541 7.90055C94.6185 7.90055 94.1138 7.64796 93.7399 7.14277C93.366 6.63758 93.1791 6.02949 93.1791 5.31849C93.1791 3.84035 93.7306 2.58674 94.8335 1.55766C95.9364 0.519219 97.4132 0 99.2639 0C101.143 0 102.685 0.594062 103.891 1.78218C105.106 2.97031 105.713 4.50925 105.713 6.39902C105.713 7.44682 105.498 8.45251 105.068 9.41611C104.638 10.3703 104.05 11.2217 103.302 11.9701C102.563 12.7092 101.479 13.64 100.049 14.7627C98.0862 16.2876 96.6561 17.5459 95.7588 18.5375Z" fill="#F37B00"/>
<path d="M118.079 14.6364H119.271C119.57 14.6364 119.766 14.6878 119.86 14.7907C119.953 14.8936 120 15.0995 120 15.4082V16.2361C120 16.4794 119.963 16.6431 119.888 16.7273C119.813 16.8115 119.635 16.8536 119.355 16.8536H118.079V19.4918C118.079 20.1186 118.346 20.5723 118.878 20.853C119.168 21.0026 119.313 21.2646 119.313 21.6388V22.2703C119.313 22.4761 119.276 22.6071 119.201 22.6632C119.126 22.7193 118.953 22.7474 118.682 22.7474H112.78C112.499 22.7474 112.326 22.7006 112.261 22.6071C112.195 22.5042 112.163 22.1721 112.163 21.6107C112.163 21.2739 112.303 21.026 112.583 20.867C112.938 20.6612 113.116 20.3758 113.116 20.011V16.8536H107.564C107.265 16.8536 107.087 16.8208 107.031 16.7553C106.975 16.6805 106.947 16.5168 106.947 16.2642V14.6364C106.947 14.468 106.961 14.337 106.989 14.2434C107.017 14.1405 107.218 13.7897 107.592 13.191L115.471 0.575351C115.612 0.350824 115.78 0.201139 115.976 0.126297C116.182 0.0420989 116.551 0 117.084 0C117.598 0 117.892 0.0327435 117.967 0.0982306C118.042 0.154362 118.079 0.31808 118.079 0.589384V14.6364ZM113.116 7.76022L108.812 14.6364H113.116V7.76022Z" fill="#F37B00"/>
</svg>
