<svg width="543" height="111" viewBox="0 0 543 111" fill="none" xmlns="http://www.w3.org/2000/svg">
<mask id="path-1-outside-1_17_3" maskUnits="userSpaceOnUse" x="0" y="0" width="543" height="111" fill="black">
<rect fill="white" width="543" height="111"/>
<path d="M43.3125 34L40.4375 17.75C40.1875 16.2083 39.375 14.7292 38 13.3125C37.0833 12.3958 36.625 11.5208 36.625 10.6875V6.3125C36.625 5.0625 37.2292 4.4375 38.4375 4.4375H64.0625C64.8958 4.4375 65.4167 4.64583 65.625 5.0625C65.875 5.47917 66 6.41667 66 7.875C66 10.0833 65.875 11.4167 65.625 11.875C65.4167 12.2917 64.8958 12.7292 64.0625 13.1875C62.8125 13.8542 62.1875 14.5208 62.1875 15.1875C62.1875 16.0625 62.3542 17.3542 62.6875 19.0625L69.8125 59.0625L77.25 17.75C77.2917 17.3333 77.3125 16.8958 77.3125 16.4375C77.3125 14.5208 76.25 13.0625 74.125 12.0625C73.0417 11.5625 72.4792 10.1458 72.4375 7.8125C72.4375 7.1875 72.4167 6.75 72.375 6.5V5.9375C72.375 4.9375 73.125 4.4375 74.625 4.4375H89C90 4.4375 90.6458 4.625 90.9375 5C91.2292 5.33333 91.375 6.08333 91.375 7.25C91.375 7.625 91.3542 8 91.3125 8.375L91.125 10.8125C90.9583 11.7708 90.2917 12.625 89.125 13.375C87.9583 14.125 87.2083 15.3958 86.875 17.1875L71.8125 99.6875C71.2292 102.938 70.75 104.875 70.375 105.5C70 106.125 69.3125 106.438 68.3125 106.438H57.8125C56.6875 106.438 55.9792 105.25 55.6875 102.875C55.6458 102.417 55.6042 102.062 55.5625 101.812L47.625 57.75L39.75 102.562C39.4583 104.354 39.1458 105.438 38.8125 105.812C38.4792 106.229 37.9375 106.438 37.1875 106.438H26.25C25 106.438 24.1042 104.25 23.5625 99.875C23.4792 99.0833 23.3958 98.4792 23.3125 98.0625L8.375 17.1875C8.04167 15.4792 7.16667 14.2292 5.75 13.4375C4.58333 12.8125 4 11.8958 4 10.6875V5.875C4 4.91667 4.58333 4.4375 5.75 4.4375H30.5C31.3333 4.4375 31.9167 4.66667 32.25 5.125C32.5833 5.54167 32.75 6.54167 32.75 8.125C32.75 9.91667 32.6875 11.0417 32.5625 11.5C32.4375 11.9583 32.0417 12.4792 31.375 13.0625C30.5417 13.8542 30.125 14.6667 30.125 15.5C30.125 16.4583 30.25 17.6458 30.5 19.0625L38.4375 61.375L43.3125 34Z"/>
<path d="M116.562 83.75H100.938L100.25 89.5C100.25 89.625 100.208 89.8125 100.125 90.0625C99.7917 91.2708 99.625 92.3542 99.625 93.3125C99.625 94.8125 100.604 96.0833 102.562 97.125C103.604 97.6667 104.25 98.2292 104.5 98.8125C104.75 99.3958 104.875 100.354 104.875 101.688C104.875 103.396 104.771 104.438 104.562 104.812C104.396 105.146 103.958 105.312 103.25 105.312H86.75C85.8333 105.312 85.375 104.354 85.375 102.438C85.375 100.146 86.1042 98.2917 87.5625 96.875C88.9375 95.5833 89.7292 94.2083 89.9375 92.75L101.5 19.1875C101.708 18.0625 101.812 17.0833 101.812 16.25C101.812 14.9583 100.917 13.8125 99.125 12.8125C98.2917 12.3125 97.875 11.2083 97.875 9.5C97.875 7.20833 98 5.79167 98.25 5.25C98.5 4.70833 99.1667 4.4375 100.25 4.4375H124.125C125.583 4.4375 126.604 5.125 127.188 6.5C127.771 7.875 128.354 10.875 128.938 15.5C129.188 17.2917 129.438 19.0625 129.688 20.8125L139.938 89.5C140.438 92.8333 141.667 95.375 143.625 97.125C144.167 97.5833 144.521 97.9583 144.688 98.25C144.854 98.5 144.938 99.3125 144.938 100.688C144.938 102.812 144.792 104.125 144.5 104.625C144.208 105.083 143.583 105.312 142.625 105.312H114.812C113.979 105.312 113.562 104.521 113.562 102.938C113.562 100.938 113.667 99.6875 113.875 99.1875C114.083 98.6875 114.688 98.1042 115.688 97.4375C117.146 96.5208 117.875 95.3542 117.875 93.9375C117.875 92.4792 117.438 89.0833 116.562 83.75ZM109.062 28L102.125 76.5625H115.875L109.062 28Z"/>
<path d="M176.938 60.9375V91.9375C176.938 93.3958 177.021 94.375 177.188 94.875C177.396 95.375 177.938 95.8958 178.812 96.4375C179.938 97.1458 180.5 98.3333 180.5 100C180.5 102.417 180.271 103.917 179.812 104.5C179.396 105.042 178.604 105.312 177.438 105.312H151C149.5 105.312 148.75 104.229 148.75 102.062C148.75 99.9792 148.812 98.6458 148.938 98.0625C149.062 97.4375 149.479 97 150.188 96.75C152.479 95.8333 153.625 94.0417 153.625 91.375V18.1875C153.625 15.4792 152.625 13.8333 150.625 13.25C149.625 12.9167 149 12.5833 148.75 12.25C148.5 11.9167 148.375 10.9375 148.375 9.3125C148.375 6.0625 149.25 4.4375 151 4.4375H185.562C192.438 4.4375 198.562 7.02083 203.938 12.1875C209.354 17.3542 212.062 24.2917 212.062 33C212.062 45.375 205.75 53.4583 193.125 57.25C204.667 59.7917 210.438 67.1042 210.438 79.1875V94.0625C210.438 95.3125 210.917 96.25 211.875 96.875C213 97.625 213.562 98.7708 213.562 100.312C213.562 102.729 213.417 104.167 213.125 104.625C212.833 105.083 212.062 105.312 210.812 105.312H194.062C192.062 105.312 190.417 104.188 189.125 101.938C187.833 99.6458 187.188 96.8333 187.188 93.5V68.3125C187.188 63.3958 184.708 60.9375 179.75 60.9375H176.938ZM176.938 11.5625V53.6875H181C185.125 53.6875 187.188 49.5417 187.188 41.25V21.125C187.188 17.625 186.521 15.1667 185.188 13.75C183.896 12.2917 181.854 11.5625 179.062 11.5625H176.938Z"/>
<path d="M261.812 47.8125C269.438 50.4792 274.688 53.7917 277.562 57.75C280.438 61.6667 281.875 67.0833 281.875 74C281.875 84.5417 279.229 92.3958 273.938 97.5625C268.646 102.729 260.458 105.312 249.375 105.312H218.812C217.562 105.312 216.938 104.667 216.938 103.375V99.625C216.938 98.5833 217.5 97.8125 218.625 97.3125C221 96.1875 222.188 94.5417 222.188 92.375V16.9375C222.188 15.8958 222.021 15.1875 221.688 14.8125C221.354 14.4375 220.354 13.8542 218.688 13.0625C217.854 12.6875 217.354 12.2708 217.188 11.8125C217.062 11.3542 217 10.2292 217 8.4375C217 6.85417 217.208 5.79167 217.625 5.25C218.083 4.70833 218.854 4.4375 219.938 4.4375H254.188C262.438 4.4375 268.771 6.54167 273.188 10.75C277.604 14.9583 279.812 20.3125 279.812 26.8125C279.812 32.2292 278.062 36.7708 274.562 40.4375C271.104 44.1042 266.854 46.5625 261.812 47.8125ZM245.438 11.5V44.3125H248.75C250.833 44.3125 252.458 43.7083 253.625 42.5C254.833 41.2917 255.521 39.2917 255.688 36.5C255.896 33.6667 256 30.1042 256 25.8125C256 19.8125 255.417 15.9375 254.25 14.1875C253.125 12.3958 251.292 11.5 248.75 11.5H245.438ZM245.438 51.4375V98.125C249.271 98.125 251.833 97.6042 253.125 96.5625C254.458 95.5208 255.229 93.4583 255.438 90.375C255.688 87.2917 255.812 82.0833 255.812 74.75C255.812 73.25 255.75 69.8542 255.625 64.5625C255.5 59.2292 255.25 56.0208 254.875 54.9375C254.5 53.8542 253.833 53 252.875 52.375C251.958 51.75 250.583 51.4375 248.75 51.4375H245.438Z"/>
<path d="M316.688 83.75H301.062L300.375 89.5C300.375 89.625 300.333 89.8125 300.25 90.0625C299.917 91.2708 299.75 92.3542 299.75 93.3125C299.75 94.8125 300.729 96.0833 302.688 97.125C303.729 97.6667 304.375 98.2292 304.625 98.8125C304.875 99.3958 305 100.354 305 101.688C305 103.396 304.896 104.438 304.688 104.812C304.521 105.146 304.083 105.312 303.375 105.312H286.875C285.958 105.312 285.5 104.354 285.5 102.438C285.5 100.146 286.229 98.2917 287.688 96.875C289.062 95.5833 289.854 94.2083 290.062 92.75L301.625 19.1875C301.833 18.0625 301.938 17.0833 301.938 16.25C301.938 14.9583 301.042 13.8125 299.25 12.8125C298.417 12.3125 298 11.2083 298 9.5C298 7.20833 298.125 5.79167 298.375 5.25C298.625 4.70833 299.292 4.4375 300.375 4.4375H324.25C325.708 4.4375 326.729 5.125 327.312 6.5C327.896 7.875 328.479 10.875 329.062 15.5C329.312 17.2917 329.562 19.0625 329.812 20.8125L340.062 89.5C340.562 92.8333 341.792 95.375 343.75 97.125C344.292 97.5833 344.646 97.9583 344.812 98.25C344.979 98.5 345.062 99.3125 345.062 100.688C345.062 102.812 344.917 104.125 344.625 104.625C344.333 105.083 343.708 105.312 342.75 105.312H314.938C314.104 105.312 313.688 104.521 313.688 102.938C313.688 100.938 313.792 99.6875 314 99.1875C314.208 98.6875 314.812 98.1042 315.812 97.4375C317.271 96.5208 318 95.3542 318 93.9375C318 92.4792 317.562 89.0833 316.688 83.75ZM309.188 28L302.25 76.5625H316L309.188 28Z"/>
<path d="M377.062 60.9375V91.9375C377.062 93.3958 377.146 94.375 377.312 94.875C377.521 95.375 378.062 95.8958 378.938 96.4375C380.062 97.1458 380.625 98.3333 380.625 100C380.625 102.417 380.396 103.917 379.938 104.5C379.521 105.042 378.729 105.312 377.562 105.312H351.125C349.625 105.312 348.875 104.229 348.875 102.062C348.875 99.9792 348.938 98.6458 349.062 98.0625C349.188 97.4375 349.604 97 350.312 96.75C352.604 95.8333 353.75 94.0417 353.75 91.375V18.1875C353.75 15.4792 352.75 13.8333 350.75 13.25C349.75 12.9167 349.125 12.5833 348.875 12.25C348.625 11.9167 348.5 10.9375 348.5 9.3125C348.5 6.0625 349.375 4.4375 351.125 4.4375H385.688C392.562 4.4375 398.688 7.02083 404.062 12.1875C409.479 17.3542 412.188 24.2917 412.188 33C412.188 45.375 405.875 53.4583 393.25 57.25C404.792 59.7917 410.562 67.1042 410.562 79.1875V94.0625C410.562 95.3125 411.042 96.25 412 96.875C413.125 97.625 413.688 98.7708 413.688 100.312C413.688 102.729 413.542 104.167 413.25 104.625C412.958 105.083 412.188 105.312 410.938 105.312H394.188C392.188 105.312 390.542 104.188 389.25 101.938C387.958 99.6458 387.312 96.8333 387.312 93.5V68.3125C387.312 63.3958 384.833 60.9375 379.875 60.9375H377.062ZM377.062 11.5625V53.6875H381.125C385.25 53.6875 387.312 49.5417 387.312 41.25V21.125C387.312 17.625 386.646 15.1667 385.312 13.75C384.021 12.2917 381.979 11.5625 379.188 11.5625H377.062Z"/>
<path d="M430.875 86.5625H462.188C463.604 86.5625 464.708 86.0417 465.5 85C466.333 83.9167 467.042 81.9167 467.625 79C467.875 77.7917 468.271 77 468.812 76.625C469.354 76.2083 470.5 76 472.25 76C474.833 76 476.125 76.5625 476.125 77.6875C476.125 78.0625 476.062 78.5 475.938 79C475.729 80.125 475.292 82.8125 474.625 87.0625C473.875 91.6875 473.125 95.7292 472.375 99.1875C471.667 102.604 471.125 104.479 470.75 104.812C470.417 105.146 469.458 105.312 467.875 105.312H418.562V90.6875C418.562 88.6458 420.312 86.0625 423.812 82.9375C425.562 81.3542 429.604 76.5833 435.938 68.625C442.312 60.6667 446.438 54.1667 448.312 49.125C450.188 44.0833 451.125 37.3542 451.125 28.9375C451.125 21.8958 450.438 17.375 449.062 15.375C447.729 13.3333 445.792 12.3125 443.25 12.3125C441.333 12.3125 439.833 12.8542 438.75 13.9375C437.667 15.0208 437.125 16.4375 437.125 18.1875C437.125 19.1875 437.229 20.3958 437.438 21.8125C437.688 23.6875 437.812 25.5 437.812 27.25C437.812 31.0417 436.938 33.9792 435.188 36.0625C433.479 38.1458 431.292 39.1875 428.625 39.1875C425.792 39.1875 423.542 38.0625 421.875 35.8125C420.208 33.5625 419.375 30.8542 419.375 27.6875C419.375 21.1042 421.833 15.5208 426.75 10.9375C431.667 6.3125 438.25 4 446.5 4C454.875 4 461.75 6.64583 467.125 11.9375C472.542 17.2292 475.25 24.0833 475.25 32.5C475.25 37.1667 474.292 41.6458 472.375 45.9375C470.458 50.1875 467.833 53.9792 464.5 57.3125C461.208 60.6042 456.375 64.75 450 69.75C441.25 76.5417 434.875 82.1458 430.875 86.5625Z"/>
<path d="M530.375 69.1875H535.688C537.021 69.1875 537.896 69.4167 538.312 69.875C538.729 70.3333 538.938 71.25 538.938 72.625V76.3125C538.938 77.3958 538.771 78.125 538.438 78.5C538.104 78.875 537.312 79.0625 536.062 79.0625H530.375V90.8125C530.375 93.6042 531.562 95.625 533.938 96.875C535.229 97.5417 535.875 98.7083 535.875 100.375V103.188C535.875 104.104 535.708 104.688 535.375 104.938C535.042 105.188 534.271 105.312 533.062 105.312H506.75C505.5 105.312 504.729 105.104 504.438 104.688C504.146 104.229 504 102.75 504 100.25C504 98.75 504.625 97.6458 505.875 96.9375C507.458 96.0208 508.25 94.75 508.25 93.125V79.0625H483.5C482.167 79.0625 481.375 78.9167 481.125 78.625C480.875 78.2917 480.75 77.5625 480.75 76.4375V69.1875C480.75 68.4375 480.812 67.8542 480.938 67.4375C481.062 66.9792 481.958 65.4167 483.625 62.75L518.75 6.5625C519.375 5.5625 520.125 4.89583 521 4.5625C521.917 4.1875 523.562 4 525.938 4C528.229 4 529.542 4.14583 529.875 4.4375C530.208 4.6875 530.375 5.41667 530.375 6.625V69.1875ZM508.25 38.5625L489.062 69.1875H508.25V38.5625Z"/>
</mask>
<path d="M43.3125 34L40.4375 17.75C40.1875 16.2083 39.375 14.7292 38 13.3125C37.0833 12.3958 36.625 11.5208 36.625 10.6875V6.3125C36.625 5.0625 37.2292 4.4375 38.4375 4.4375H64.0625C64.8958 4.4375 65.4167 4.64583 65.625 5.0625C65.875 5.47917 66 6.41667 66 7.875C66 10.0833 65.875 11.4167 65.625 11.875C65.4167 12.2917 64.8958 12.7292 64.0625 13.1875C62.8125 13.8542 62.1875 14.5208 62.1875 15.1875C62.1875 16.0625 62.3542 17.3542 62.6875 19.0625L69.8125 59.0625L77.25 17.75C77.2917 17.3333 77.3125 16.8958 77.3125 16.4375C77.3125 14.5208 76.25 13.0625 74.125 12.0625C73.0417 11.5625 72.4792 10.1458 72.4375 7.8125C72.4375 7.1875 72.4167 6.75 72.375 6.5V5.9375C72.375 4.9375 73.125 4.4375 74.625 4.4375H89C90 4.4375 90.6458 4.625 90.9375 5C91.2292 5.33333 91.375 6.08333 91.375 7.25C91.375 7.625 91.3542 8 91.3125 8.375L91.125 10.8125C90.9583 11.7708 90.2917 12.625 89.125 13.375C87.9583 14.125 87.2083 15.3958 86.875 17.1875L71.8125 99.6875C71.2292 102.938 70.75 104.875 70.375 105.5C70 106.125 69.3125 106.438 68.3125 106.438H57.8125C56.6875 106.438 55.9792 105.25 55.6875 102.875C55.6458 102.417 55.6042 102.062 55.5625 101.812L47.625 57.75L39.75 102.562C39.4583 104.354 39.1458 105.438 38.8125 105.812C38.4792 106.229 37.9375 106.438 37.1875 106.438H26.25C25 106.438 24.1042 104.25 23.5625 99.875C23.4792 99.0833 23.3958 98.4792 23.3125 98.0625L8.375 17.1875C8.04167 15.4792 7.16667 14.2292 5.75 13.4375C4.58333 12.8125 4 11.8958 4 10.6875V5.875C4 4.91667 4.58333 4.4375 5.75 4.4375H30.5C31.3333 4.4375 31.9167 4.66667 32.25 5.125C32.5833 5.54167 32.75 6.54167 32.75 8.125C32.75 9.91667 32.6875 11.0417 32.5625 11.5C32.4375 11.9583 32.0417 12.4792 31.375 13.0625C30.5417 13.8542 30.125 14.6667 30.125 15.5C30.125 16.4583 30.25 17.6458 30.5 19.0625L38.4375 61.375L43.3125 34Z" fill="#00B700"/>
<path d="M116.562 83.75H100.938L100.25 89.5C100.25 89.625 100.208 89.8125 100.125 90.0625C99.7917 91.2708 99.625 92.3542 99.625 93.3125C99.625 94.8125 100.604 96.0833 102.562 97.125C103.604 97.6667 104.25 98.2292 104.5 98.8125C104.75 99.3958 104.875 100.354 104.875 101.688C104.875 103.396 104.771 104.438 104.562 104.812C104.396 105.146 103.958 105.312 103.25 105.312H86.75C85.8333 105.312 85.375 104.354 85.375 102.438C85.375 100.146 86.1042 98.2917 87.5625 96.875C88.9375 95.5833 89.7292 94.2083 89.9375 92.75L101.5 19.1875C101.708 18.0625 101.812 17.0833 101.812 16.25C101.812 14.9583 100.917 13.8125 99.125 12.8125C98.2917 12.3125 97.875 11.2083 97.875 9.5C97.875 7.20833 98 5.79167 98.25 5.25C98.5 4.70833 99.1667 4.4375 100.25 4.4375H124.125C125.583 4.4375 126.604 5.125 127.188 6.5C127.771 7.875 128.354 10.875 128.938 15.5C129.188 17.2917 129.438 19.0625 129.688 20.8125L139.938 89.5C140.438 92.8333 141.667 95.375 143.625 97.125C144.167 97.5833 144.521 97.9583 144.688 98.25C144.854 98.5 144.938 99.3125 144.938 100.688C144.938 102.812 144.792 104.125 144.5 104.625C144.208 105.083 143.583 105.312 142.625 105.312H114.812C113.979 105.312 113.562 104.521 113.562 102.938C113.562 100.938 113.667 99.6875 113.875 99.1875C114.083 98.6875 114.688 98.1042 115.688 97.4375C117.146 96.5208 117.875 95.3542 117.875 93.9375C117.875 92.4792 117.438 89.0833 116.562 83.75ZM109.062 28L102.125 76.5625H115.875L109.062 28Z" fill="#00B700"/>
<path d="M176.938 60.9375V91.9375C176.938 93.3958 177.021 94.375 177.188 94.875C177.396 95.375 177.938 95.8958 178.812 96.4375C179.938 97.1458 180.5 98.3333 180.5 100C180.5 102.417 180.271 103.917 179.812 104.5C179.396 105.042 178.604 105.312 177.438 105.312H151C149.5 105.312 148.75 104.229 148.75 102.062C148.75 99.9792 148.812 98.6458 148.938 98.0625C149.062 97.4375 149.479 97 150.188 96.75C152.479 95.8333 153.625 94.0417 153.625 91.375V18.1875C153.625 15.4792 152.625 13.8333 150.625 13.25C149.625 12.9167 149 12.5833 148.75 12.25C148.5 11.9167 148.375 10.9375 148.375 9.3125C148.375 6.0625 149.25 4.4375 151 4.4375H185.562C192.438 4.4375 198.562 7.02083 203.938 12.1875C209.354 17.3542 212.062 24.2917 212.062 33C212.062 45.375 205.75 53.4583 193.125 57.25C204.667 59.7917 210.438 67.1042 210.438 79.1875V94.0625C210.438 95.3125 210.917 96.25 211.875 96.875C213 97.625 213.562 98.7708 213.562 100.312C213.562 102.729 213.417 104.167 213.125 104.625C212.833 105.083 212.062 105.312 210.812 105.312H194.062C192.062 105.312 190.417 104.188 189.125 101.938C187.833 99.6458 187.188 96.8333 187.188 93.5V68.3125C187.188 63.3958 184.708 60.9375 179.75 60.9375H176.938ZM176.938 11.5625V53.6875H181C185.125 53.6875 187.188 49.5417 187.188 41.25V21.125C187.188 17.625 186.521 15.1667 185.188 13.75C183.896 12.2917 181.854 11.5625 179.062 11.5625H176.938Z" fill="#00B700"/>
<path d="M261.812 47.8125C269.438 50.4792 274.688 53.7917 277.562 57.75C280.438 61.6667 281.875 67.0833 281.875 74C281.875 84.5417 279.229 92.3958 273.938 97.5625C268.646 102.729 260.458 105.312 249.375 105.312H218.812C217.562 105.312 216.938 104.667 216.938 103.375V99.625C216.938 98.5833 217.5 97.8125 218.625 97.3125C221 96.1875 222.188 94.5417 222.188 92.375V16.9375C222.188 15.8958 222.021 15.1875 221.688 14.8125C221.354 14.4375 220.354 13.8542 218.688 13.0625C217.854 12.6875 217.354 12.2708 217.188 11.8125C217.062 11.3542 217 10.2292 217 8.4375C217 6.85417 217.208 5.79167 217.625 5.25C218.083 4.70833 218.854 4.4375 219.938 4.4375H254.188C262.438 4.4375 268.771 6.54167 273.188 10.75C277.604 14.9583 279.812 20.3125 279.812 26.8125C279.812 32.2292 278.062 36.7708 274.562 40.4375C271.104 44.1042 266.854 46.5625 261.812 47.8125ZM245.438 11.5V44.3125H248.75C250.833 44.3125 252.458 43.7083 253.625 42.5C254.833 41.2917 255.521 39.2917 255.688 36.5C255.896 33.6667 256 30.1042 256 25.8125C256 19.8125 255.417 15.9375 254.25 14.1875C253.125 12.3958 251.292 11.5 248.75 11.5H245.438ZM245.438 51.4375V98.125C249.271 98.125 251.833 97.6042 253.125 96.5625C254.458 95.5208 255.229 93.4583 255.438 90.375C255.688 87.2917 255.812 82.0833 255.812 74.75C255.812 73.25 255.75 69.8542 255.625 64.5625C255.5 59.2292 255.25 56.0208 254.875 54.9375C254.5 53.8542 253.833 53 252.875 52.375C251.958 51.75 250.583 51.4375 248.75 51.4375H245.438Z" fill="#F37B00"/>
<path d="M316.688 83.75H301.062L300.375 89.5C300.375 89.625 300.333 89.8125 300.25 90.0625C299.917 91.2708 299.75 92.3542 299.75 93.3125C299.75 94.8125 300.729 96.0833 302.688 97.125C303.729 97.6667 304.375 98.2292 304.625 98.8125C304.875 99.3958 305 100.354 305 101.688C305 103.396 304.896 104.438 304.688 104.812C304.521 105.146 304.083 105.312 303.375 105.312H286.875C285.958 105.312 285.5 104.354 285.5 102.438C285.5 100.146 286.229 98.2917 287.688 96.875C289.062 95.5833 289.854 94.2083 290.062 92.75L301.625 19.1875C301.833 18.0625 301.938 17.0833 301.938 16.25C301.938 14.9583 301.042 13.8125 299.25 12.8125C298.417 12.3125 298 11.2083 298 9.5C298 7.20833 298.125 5.79167 298.375 5.25C298.625 4.70833 299.292 4.4375 300.375 4.4375H324.25C325.708 4.4375 326.729 5.125 327.312 6.5C327.896 7.875 328.479 10.875 329.062 15.5C329.312 17.2917 329.562 19.0625 329.812 20.8125L340.062 89.5C340.562 92.8333 341.792 95.375 343.75 97.125C344.292 97.5833 344.646 97.9583 344.812 98.25C344.979 98.5 345.062 99.3125 345.062 100.688C345.062 102.812 344.917 104.125 344.625 104.625C344.333 105.083 343.708 105.312 342.75 105.312H314.938C314.104 105.312 313.688 104.521 313.688 102.938C313.688 100.938 313.792 99.6875 314 99.1875C314.208 98.6875 314.812 98.1042 315.812 97.4375C317.271 96.5208 318 95.3542 318 93.9375C318 92.4792 317.562 89.0833 316.688 83.75ZM309.188 28L302.25 76.5625H316L309.188 28Z" fill="#F37B00"/>
<path d="M377.062 60.9375V91.9375C377.062 93.3958 377.146 94.375 377.312 94.875C377.521 95.375 378.062 95.8958 378.938 96.4375C380.062 97.1458 380.625 98.3333 380.625 100C380.625 102.417 380.396 103.917 379.938 104.5C379.521 105.042 378.729 105.312 377.562 105.312H351.125C349.625 105.312 348.875 104.229 348.875 102.062C348.875 99.9792 348.938 98.6458 349.062 98.0625C349.188 97.4375 349.604 97 350.312 96.75C352.604 95.8333 353.75 94.0417 353.75 91.375V18.1875C353.75 15.4792 352.75 13.8333 350.75 13.25C349.75 12.9167 349.125 12.5833 348.875 12.25C348.625 11.9167 348.5 10.9375 348.5 9.3125C348.5 6.0625 349.375 4.4375 351.125 4.4375H385.688C392.562 4.4375 398.688 7.02083 404.062 12.1875C409.479 17.3542 412.188 24.2917 412.188 33C412.188 45.375 405.875 53.4583 393.25 57.25C404.792 59.7917 410.562 67.1042 410.562 79.1875V94.0625C410.562 95.3125 411.042 96.25 412 96.875C413.125 97.625 413.688 98.7708 413.688 100.312C413.688 102.729 413.542 104.167 413.25 104.625C412.958 105.083 412.188 105.312 410.938 105.312H394.188C392.188 105.312 390.542 104.188 389.25 101.938C387.958 99.6458 387.312 96.8333 387.312 93.5V68.3125C387.312 63.3958 384.833 60.9375 379.875 60.9375H377.062ZM377.062 11.5625V53.6875H381.125C385.25 53.6875 387.312 49.5417 387.312 41.25V21.125C387.312 17.625 386.646 15.1667 385.312 13.75C384.021 12.2917 381.979 11.5625 379.188 11.5625H377.062Z" fill="#F37B00"/>
<path d="M430.875 86.5625H462.188C463.604 86.5625 464.708 86.0417 465.5 85C466.333 83.9167 467.042 81.9167 467.625 79C467.875 77.7917 468.271 77 468.812 76.625C469.354 76.2083 470.5 76 472.25 76C474.833 76 476.125 76.5625 476.125 77.6875C476.125 78.0625 476.062 78.5 475.938 79C475.729 80.125 475.292 82.8125 474.625 87.0625C473.875 91.6875 473.125 95.7292 472.375 99.1875C471.667 102.604 471.125 104.479 470.75 104.812C470.417 105.146 469.458 105.312 467.875 105.312H418.562V90.6875C418.562 88.6458 420.312 86.0625 423.812 82.9375C425.562 81.3542 429.604 76.5833 435.938 68.625C442.312 60.6667 446.438 54.1667 448.312 49.125C450.188 44.0833 451.125 37.3542 451.125 28.9375C451.125 21.8958 450.438 17.375 449.062 15.375C447.729 13.3333 445.792 12.3125 443.25 12.3125C441.333 12.3125 439.833 12.8542 438.75 13.9375C437.667 15.0208 437.125 16.4375 437.125 18.1875C437.125 19.1875 437.229 20.3958 437.438 21.8125C437.688 23.6875 437.812 25.5 437.812 27.25C437.812 31.0417 436.938 33.9792 435.188 36.0625C433.479 38.1458 431.292 39.1875 428.625 39.1875C425.792 39.1875 423.542 38.0625 421.875 35.8125C420.208 33.5625 419.375 30.8542 419.375 27.6875C419.375 21.1042 421.833 15.5208 426.75 10.9375C431.667 6.3125 438.25 4 446.5 4C454.875 4 461.75 6.64583 467.125 11.9375C472.542 17.2292 475.25 24.0833 475.25 32.5C475.25 37.1667 474.292 41.6458 472.375 45.9375C470.458 50.1875 467.833 53.9792 464.5 57.3125C461.208 60.6042 456.375 64.75 450 69.75C441.25 76.5417 434.875 82.1458 430.875 86.5625Z" fill="#F37B00"/>
<path d="M530.375 69.1875H535.688C537.021 69.1875 537.896 69.4167 538.312 69.875C538.729 70.3333 538.938 71.25 538.938 72.625V76.3125C538.938 77.3958 538.771 78.125 538.438 78.5C538.104 78.875 537.312 79.0625 536.062 79.0625H530.375V90.8125C530.375 93.6042 531.562 95.625 533.938 96.875C535.229 97.5417 535.875 98.7083 535.875 100.375V103.188C535.875 104.104 535.708 104.688 535.375 104.938C535.042 105.188 534.271 105.312 533.062 105.312H506.75C505.5 105.312 504.729 105.104 504.438 104.688C504.146 104.229 504 102.75 504 100.25C504 98.75 504.625 97.6458 505.875 96.9375C507.458 96.0208 508.25 94.75 508.25 93.125V79.0625H483.5C482.167 79.0625 481.375 78.9167 481.125 78.625C480.875 78.2917 480.75 77.5625 480.75 76.4375V69.1875C480.75 68.4375 480.812 67.8542 480.938 67.4375C481.062 66.9792 481.958 65.4167 483.625 62.75L518.75 6.5625C519.375 5.5625 520.125 4.89583 521 4.5625C521.917 4.1875 523.562 4 525.938 4C528.229 4 529.542 4.14583 529.875 4.4375C530.208 4.6875 530.375 5.41667 530.375 6.625V69.1875ZM508.25 38.5625L489.062 69.1875H508.25V38.5625Z" fill="#F37B00"/>
<path d="M43.3125 34L40.4375 17.75C40.1875 16.2083 39.375 14.7292 38 13.3125C37.0833 12.3958 36.625 11.5208 36.625 10.6875V6.3125C36.625 5.0625 37.2292 4.4375 38.4375 4.4375H64.0625C64.8958 4.4375 65.4167 4.64583 65.625 5.0625C65.875 5.47917 66 6.41667 66 7.875C66 10.0833 65.875 11.4167 65.625 11.875C65.4167 12.2917 64.8958 12.7292 64.0625 13.1875C62.8125 13.8542 62.1875 14.5208 62.1875 15.1875C62.1875 16.0625 62.3542 17.3542 62.6875 19.0625L69.8125 59.0625L77.25 17.75C77.2917 17.3333 77.3125 16.8958 77.3125 16.4375C77.3125 14.5208 76.25 13.0625 74.125 12.0625C73.0417 11.5625 72.4792 10.1458 72.4375 7.8125C72.4375 7.1875 72.4167 6.75 72.375 6.5V5.9375C72.375 4.9375 73.125 4.4375 74.625 4.4375H89C90 4.4375 90.6458 4.625 90.9375 5C91.2292 5.33333 91.375 6.08333 91.375 7.25C91.375 7.625 91.3542 8 91.3125 8.375L91.125 10.8125C90.9583 11.7708 90.2917 12.625 89.125 13.375C87.9583 14.125 87.2083 15.3958 86.875 17.1875L71.8125 99.6875C71.2292 102.938 70.75 104.875 70.375 105.5C70 106.125 69.3125 106.438 68.3125 106.438H57.8125C56.6875 106.438 55.9792 105.25 55.6875 102.875C55.6458 102.417 55.6042 102.062 55.5625 101.812L47.625 57.75L39.75 102.562C39.4583 104.354 39.1458 105.438 38.8125 105.812C38.4792 106.229 37.9375 106.438 37.1875 106.438H26.25C25 106.438 24.1042 104.25 23.5625 99.875C23.4792 99.0833 23.3958 98.4792 23.3125 98.0625L8.375 17.1875C8.04167 15.4792 7.16667 14.2292 5.75 13.4375C4.58333 12.8125 4 11.8958 4 10.6875V5.875C4 4.91667 4.58333 4.4375 5.75 4.4375H30.5C31.3333 4.4375 31.9167 4.66667 32.25 5.125C32.5833 5.54167 32.75 6.54167 32.75 8.125C32.75 9.91667 32.6875 11.0417 32.5625 11.5C32.4375 11.9583 32.0417 12.4792 31.375 13.0625C30.5417 13.8542 30.125 14.6667 30.125 15.5C30.125 16.4583 30.25 17.6458 30.5 19.0625L38.4375 61.375L43.3125 34Z" stroke="white" stroke-width="8" mask="url(#path-1-outside-1_17_3)"/>
<path d="M116.562 83.75H100.938L100.25 89.5C100.25 89.625 100.208 89.8125 100.125 90.0625C99.7917 91.2708 99.625 92.3542 99.625 93.3125C99.625 94.8125 100.604 96.0833 102.562 97.125C103.604 97.6667 104.25 98.2292 104.5 98.8125C104.75 99.3958 104.875 100.354 104.875 101.688C104.875 103.396 104.771 104.438 104.562 104.812C104.396 105.146 103.958 105.312 103.25 105.312H86.75C85.8333 105.312 85.375 104.354 85.375 102.438C85.375 100.146 86.1042 98.2917 87.5625 96.875C88.9375 95.5833 89.7292 94.2083 89.9375 92.75L101.5 19.1875C101.708 18.0625 101.812 17.0833 101.812 16.25C101.812 14.9583 100.917 13.8125 99.125 12.8125C98.2917 12.3125 97.875 11.2083 97.875 9.5C97.875 7.20833 98 5.79167 98.25 5.25C98.5 4.70833 99.1667 4.4375 100.25 4.4375H124.125C125.583 4.4375 126.604 5.125 127.188 6.5C127.771 7.875 128.354 10.875 128.938 15.5C129.188 17.2917 129.438 19.0625 129.688 20.8125L139.938 89.5C140.438 92.8333 141.667 95.375 143.625 97.125C144.167 97.5833 144.521 97.9583 144.688 98.25C144.854 98.5 144.938 99.3125 144.938 100.688C144.938 102.812 144.792 104.125 144.5 104.625C144.208 105.083 143.583 105.312 142.625 105.312H114.812C113.979 105.312 113.562 104.521 113.562 102.938C113.562 100.938 113.667 99.6875 113.875 99.1875C114.083 98.6875 114.688 98.1042 115.688 97.4375C117.146 96.5208 117.875 95.3542 117.875 93.9375C117.875 92.4792 117.438 89.0833 116.562 83.75ZM109.062 28L102.125 76.5625H115.875L109.062 28Z" stroke="white" stroke-width="8" mask="url(#path-1-outside-1_17_3)"/>
<path d="M176.938 60.9375V91.9375C176.938 93.3958 177.021 94.375 177.188 94.875C177.396 95.375 177.938 95.8958 178.812 96.4375C179.938 97.1458 180.5 98.3333 180.5 100C180.5 102.417 180.271 103.917 179.812 104.5C179.396 105.042 178.604 105.312 177.438 105.312H151C149.5 105.312 148.75 104.229 148.75 102.062C148.75 99.9792 148.812 98.6458 148.938 98.0625C149.062 97.4375 149.479 97 150.188 96.75C152.479 95.8333 153.625 94.0417 153.625 91.375V18.1875C153.625 15.4792 152.625 13.8333 150.625 13.25C149.625 12.9167 149 12.5833 148.75 12.25C148.5 11.9167 148.375 10.9375 148.375 9.3125C148.375 6.0625 149.25 4.4375 151 4.4375H185.562C192.438 4.4375 198.562 7.02083 203.938 12.1875C209.354 17.3542 212.062 24.2917 212.062 33C212.062 45.375 205.75 53.4583 193.125 57.25C204.667 59.7917 210.438 67.1042 210.438 79.1875V94.0625C210.438 95.3125 210.917 96.25 211.875 96.875C213 97.625 213.562 98.7708 213.562 100.312C213.562 102.729 213.417 104.167 213.125 104.625C212.833 105.083 212.062 105.312 210.812 105.312H194.062C192.062 105.312 190.417 104.188 189.125 101.938C187.833 99.6458 187.188 96.8333 187.188 93.5V68.3125C187.188 63.3958 184.708 60.9375 179.75 60.9375H176.938ZM176.938 11.5625V53.6875H181C185.125 53.6875 187.188 49.5417 187.188 41.25V21.125C187.188 17.625 186.521 15.1667 185.188 13.75C183.896 12.2917 181.854 11.5625 179.062 11.5625H176.938Z" stroke="white" stroke-width="8" mask="url(#path-1-outside-1_17_3)"/>
<path d="M261.812 47.8125C269.438 50.4792 274.688 53.7917 277.562 57.75C280.438 61.6667 281.875 67.0833 281.875 74C281.875 84.5417 279.229 92.3958 273.938 97.5625C268.646 102.729 260.458 105.312 249.375 105.312H218.812C217.562 105.312 216.938 104.667 216.938 103.375V99.625C216.938 98.5833 217.5 97.8125 218.625 97.3125C221 96.1875 222.188 94.5417 222.188 92.375V16.9375C222.188 15.8958 222.021 15.1875 221.688 14.8125C221.354 14.4375 220.354 13.8542 218.688 13.0625C217.854 12.6875 217.354 12.2708 217.188 11.8125C217.062 11.3542 217 10.2292 217 8.4375C217 6.85417 217.208 5.79167 217.625 5.25C218.083 4.70833 218.854 4.4375 219.938 4.4375H254.188C262.438 4.4375 268.771 6.54167 273.188 10.75C277.604 14.9583 279.812 20.3125 279.812 26.8125C279.812 32.2292 278.062 36.7708 274.562 40.4375C271.104 44.1042 266.854 46.5625 261.812 47.8125ZM245.438 11.5V44.3125H248.75C250.833 44.3125 252.458 43.7083 253.625 42.5C254.833 41.2917 255.521 39.2917 255.688 36.5C255.896 33.6667 256 30.1042 256 25.8125C256 19.8125 255.417 15.9375 254.25 14.1875C253.125 12.3958 251.292 11.5 248.75 11.5H245.438ZM245.438 51.4375V98.125C249.271 98.125 251.833 97.6042 253.125 96.5625C254.458 95.5208 255.229 93.4583 255.438 90.375C255.688 87.2917 255.812 82.0833 255.812 74.75C255.812 73.25 255.75 69.8542 255.625 64.5625C255.5 59.2292 255.25 56.0208 254.875 54.9375C254.5 53.8542 253.833 53 252.875 52.375C251.958 51.75 250.583 51.4375 248.75 51.4375H245.438Z" stroke="white" stroke-width="8" mask="url(#path-1-outside-1_17_3)"/>
<path d="M316.688 83.75H301.062L300.375 89.5C300.375 89.625 300.333 89.8125 300.25 90.0625C299.917 91.2708 299.75 92.3542 299.75 93.3125C299.75 94.8125 300.729 96.0833 302.688 97.125C303.729 97.6667 304.375 98.2292 304.625 98.8125C304.875 99.3958 305 100.354 305 101.688C305 103.396 304.896 104.438 304.688 104.812C304.521 105.146 304.083 105.312 303.375 105.312H286.875C285.958 105.312 285.5 104.354 285.5 102.438C285.5 100.146 286.229 98.2917 287.688 96.875C289.062 95.5833 289.854 94.2083 290.062 92.75L301.625 19.1875C301.833 18.0625 301.938 17.0833 301.938 16.25C301.938 14.9583 301.042 13.8125 299.25 12.8125C298.417 12.3125 298 11.2083 298 9.5C298 7.20833 298.125 5.79167 298.375 5.25C298.625 4.70833 299.292 4.4375 300.375 4.4375H324.25C325.708 4.4375 326.729 5.125 327.312 6.5C327.896 7.875 328.479 10.875 329.062 15.5C329.312 17.2917 329.562 19.0625 329.812 20.8125L340.062 89.5C340.562 92.8333 341.792 95.375 343.75 97.125C344.292 97.5833 344.646 97.9583 344.812 98.25C344.979 98.5 345.062 99.3125 345.062 100.688C345.062 102.812 344.917 104.125 344.625 104.625C344.333 105.083 343.708 105.312 342.75 105.312H314.938C314.104 105.312 313.688 104.521 313.688 102.938C313.688 100.938 313.792 99.6875 314 99.1875C314.208 98.6875 314.812 98.1042 315.812 97.4375C317.271 96.5208 318 95.3542 318 93.9375C318 92.4792 317.562 89.0833 316.688 83.75ZM309.188 28L302.25 76.5625H316L309.188 28Z" stroke="white" stroke-width="8" mask="url(#path-1-outside-1_17_3)"/>
<path d="M377.062 60.9375V91.9375C377.062 93.3958 377.146 94.375 377.312 94.875C377.521 95.375 378.062 95.8958 378.938 96.4375C380.062 97.1458 380.625 98.3333 380.625 100C380.625 102.417 380.396 103.917 379.938 104.5C379.521 105.042 378.729 105.312 377.562 105.312H351.125C349.625 105.312 348.875 104.229 348.875 102.062C348.875 99.9792 348.938 98.6458 349.062 98.0625C349.188 97.4375 349.604 97 350.312 96.75C352.604 95.8333 353.75 94.0417 353.75 91.375V18.1875C353.75 15.4792 352.75 13.8333 350.75 13.25C349.75 12.9167 349.125 12.5833 348.875 12.25C348.625 11.9167 348.5 10.9375 348.5 9.3125C348.5 6.0625 349.375 4.4375 351.125 4.4375H385.688C392.562 4.4375 398.688 7.02083 404.062 12.1875C409.479 17.3542 412.188 24.2917 412.188 33C412.188 45.375 405.875 53.4583 393.25 57.25C404.792 59.7917 410.562 67.1042 410.562 79.1875V94.0625C410.562 95.3125 411.042 96.25 412 96.875C413.125 97.625 413.688 98.7708 413.688 100.312C413.688 102.729 413.542 104.167 413.25 104.625C412.958 105.083 412.188 105.312 410.938 105.312H394.188C392.188 105.312 390.542 104.188 389.25 101.938C387.958 99.6458 387.312 96.8333 387.312 93.5V68.3125C387.312 63.3958 384.833 60.9375 379.875 60.9375H377.062ZM377.062 11.5625V53.6875H381.125C385.25 53.6875 387.312 49.5417 387.312 41.25V21.125C387.312 17.625 386.646 15.1667 385.312 13.75C384.021 12.2917 381.979 11.5625 379.188 11.5625H377.062Z" stroke="white" stroke-width="8" mask="url(#path-1-outside-1_17_3)"/>
<path d="M430.875 86.5625H462.188C463.604 86.5625 464.708 86.0417 465.5 85C466.333 83.9167 467.042 81.9167 467.625 79C467.875 77.7917 468.271 77 468.812 76.625C469.354 76.2083 470.5 76 472.25 76C474.833 76 476.125 76.5625 476.125 77.6875C476.125 78.0625 476.062 78.5 475.938 79C475.729 80.125 475.292 82.8125 474.625 87.0625C473.875 91.6875 473.125 95.7292 472.375 99.1875C471.667 102.604 471.125 104.479 470.75 104.812C470.417 105.146 469.458 105.312 467.875 105.312H418.562V90.6875C418.562 88.6458 420.312 86.0625 423.812 82.9375C425.562 81.3542 429.604 76.5833 435.938 68.625C442.312 60.6667 446.438 54.1667 448.312 49.125C450.188 44.0833 451.125 37.3542 451.125 28.9375C451.125 21.8958 450.438 17.375 449.062 15.375C447.729 13.3333 445.792 12.3125 443.25 12.3125C441.333 12.3125 439.833 12.8542 438.75 13.9375C437.667 15.0208 437.125 16.4375 437.125 18.1875C437.125 19.1875 437.229 20.3958 437.438 21.8125C437.688 23.6875 437.812 25.5 437.812 27.25C437.812 31.0417 436.938 33.9792 435.188 36.0625C433.479 38.1458 431.292 39.1875 428.625 39.1875C425.792 39.1875 423.542 38.0625 421.875 35.8125C420.208 33.5625 419.375 30.8542 419.375 27.6875C419.375 21.1042 421.833 15.5208 426.75 10.9375C431.667 6.3125 438.25 4 446.5 4C454.875 4 461.75 6.64583 467.125 11.9375C472.542 17.2292 475.25 24.0833 475.25 32.5C475.25 37.1667 474.292 41.6458 472.375 45.9375C470.458 50.1875 467.833 53.9792 464.5 57.3125C461.208 60.6042 456.375 64.75 450 69.75C441.25 76.5417 434.875 82.1458 430.875 86.5625Z" stroke="white" stroke-width="8" mask="url(#path-1-outside-1_17_3)"/>
<path d="M530.375 69.1875H535.688C537.021 69.1875 537.896 69.4167 538.312 69.875C538.729 70.3333 538.938 71.25 538.938 72.625V76.3125C538.938 77.3958 538.771 78.125 538.438 78.5C538.104 78.875 537.312 79.0625 536.062 79.0625H530.375V90.8125C530.375 93.6042 531.562 95.625 533.938 96.875C535.229 97.5417 535.875 98.7083 535.875 100.375V103.188C535.875 104.104 535.708 104.688 535.375 104.938C535.042 105.188 534.271 105.312 533.062 105.312H506.75C505.5 105.312 504.729 105.104 504.438 104.688C504.146 104.229 504 102.75 504 100.25C504 98.75 504.625 97.6458 505.875 96.9375C507.458 96.0208 508.25 94.75 508.25 93.125V79.0625H483.5C482.167 79.0625 481.375 78.9167 481.125 78.625C480.875 78.2917 480.75 77.5625 480.75 76.4375V69.1875C480.75 68.4375 480.812 67.8542 480.938 67.4375C481.062 66.9792 481.958 65.4167 483.625 62.75L518.75 6.5625C519.375 5.5625 520.125 4.89583 521 4.5625C521.917 4.1875 523.562 4 525.938 4C528.229 4 529.542 4.14583 529.875 4.4375C530.208 4.6875 530.375 5.41667 530.375 6.625V69.1875ZM508.25 38.5625L489.062 69.1875H508.25V38.5625Z" stroke="white" stroke-width="8" mask="url(#path-1-outside-1_17_3)"/>
</svg>
